<svg width="35" height="34" viewBox="0 0 35 34" fill="none" xmlns="http://www.w3.org/2000/svg">
<path d="M29.3555 0H5.98047C3.04646 0 0.667969 2.37849 0.667969 5.3125V28.6875C0.667969 31.6215 3.04646 34 5.98047 34H29.3555C32.2895 34 34.668 31.6215 34.668 28.6875V5.3125C34.668 2.37849 32.2895 0 29.3555 0Z" fill="#363240"/>
<path fill-rule="evenodd" clip-rule="evenodd" d="M20.509 14.6782C21.5383 15.4134 22.7988 15.846 24.1602 15.846V13.7847C23.4003 13.6229 22.7276 13.226 22.2217 12.6738C21.3559 12.1339 20.732 11.2429 20.5492 10.2002H18.6405V20.6596C18.6362 21.8789 17.6461 22.8662 16.4252 22.8662C15.7057 22.8662 15.0665 22.5235 14.6617 21.9925C13.9388 21.6279 13.4431 20.8793 13.4431 20.0147C13.4431 18.7919 14.4348 17.8005 15.6584 17.8005C15.8928 17.8005 16.1187 17.837 16.3307 17.9043V15.8204C13.7031 15.8747 11.5898 18.0206 11.5898 20.6597C11.5898 21.9771 12.1161 23.1714 12.9702 24.044C13.7407 24.5611 14.6683 24.8627 15.6662 24.8627C18.3408 24.8627 20.509 22.6956 20.509 20.0223V14.6782Z" fill="white"/>
<path fill-rule="evenodd" clip-rule="evenodd" d="M24.1603 13.7845V13.2271C23.475 13.2281 22.8032 13.0363 22.2218 12.6736C22.7365 13.2368 23.4142 13.6251 24.1603 13.7845ZM20.5492 10.2C20.5318 10.1004 20.5184 10 20.5091 9.8993V9.5625H17.8737V20.022C17.8695 21.2412 16.8795 22.2285 15.6585 22.2285C15.2999 22.2285 14.9615 22.1435 14.6618 21.9923C15.0666 22.5233 15.7058 22.866 16.4252 22.866C17.6461 22.866 18.6363 21.8787 18.6406 20.6594V10.2H20.5492ZM16.3308 15.8202V15.2268C16.1106 15.1967 15.8886 15.1817 15.6664 15.1818C12.9915 15.1818 10.8232 17.3489 10.8232 20.022C10.8232 21.6979 11.6754 23.1749 12.9703 24.0437C12.1163 23.1711 11.59 21.9768 11.59 20.6594C11.59 18.0204 13.7032 15.8745 16.3308 15.8202Z" fill="white"/>
</svg>
